<svg xmlns="http://www.w3.org/2000/svg" width="64" height="64" enable-background="new 0 0 64 64" viewBox="0 0 64 64"><path fill="#133851" d="M63.376,3.638c-0.5-0.19-1.06,0.06-1.26,0.56l-0.8,2.1c-1.28,3.33-4.63,5.34-8.16,4.89
		c-2.9-0.36-5.75,0.59-7.86,2.6l-2.2-2.2c-0.18-0.18-0.43-0.28-0.68-0.28c-0.26,0-0.51,0.1-0.69,0.28l-2.9,2.9
		c-3.26-1.96-6.95-2.95-10.74-2.78c-5.82,0.26-11.569,3.08-16.649,8.16c0,0.01-0.01,0.01-0.01,0.01c0,0.01-0.01,0.01-0.02,0.01
		c0,0.01,0,0.02-0.01,0.02c-10.31,10.35-15.619,28.099-7.3,36.418c2.85,2.85,6.8,4.1,11.19,4.1c8.42,0,18.439-4.62,25.239-11.41
		c0,0,0,0,0.01,0v-0.01c0.01-0.01,0.01-0.01,0.02-0.02c8.62-8.62,10.509-19.109,5.4-27.409l2.88-2.88c0.38-0.38,0.38-1,0-1.37
		l-2.17-2.17c1.68-1.58,3.94-2.33,6.24-2.04c4.42,0.56,8.62-1.96,10.22-6.12l0.81-2.11C64.126,4.388,63.876,3.828,63.376,3.638z
		 M28.168,13.647c0.26-0.01,0.52-0.02,0.77-0.02c4.33,0,8.46,1.66,11.81,4.7l-3.24,3.24c-2.01-1.26-4.96-0.8-7.01,1.25
		c-2.04,2.05-2.51,4.99-1.25,7l-3.27,3.27L13.498,20.607C18.048,16.287,23.108,13.877,28.168,13.647z M31.868,24.187
		c0.79-0.78,1.76-1.27,2.75-1.37c0.12-0.01,0.25-0.02,0.37-0.02c0.76,0,1.43,0.25,1.91,0.73c0,0.01,0,0.01,0,0.01
		c0.5,0.5,0.74,1.18,0.74,1.91c0,1.04-0.49,2.19-1.4,3.11c-0.78,0.78-1.76,1.27-2.75,1.37c-0.9,0.09-1.71-0.16-2.26-0.71
		c0,0,0,0-0.01,0v-0.01C30.018,28.007,30.308,25.757,31.868,24.187z M5.469,54.956c-7.24-7.24-2.4-23.389,6.65-32.989l26.349,26.349
		C28.868,57.366,12.708,62.206,5.469,54.956z M39.827,46.936L27.348,34.457l3.27-3.27c0.73,0.45,1.58,0.7,2.5,0.7
		c0.19,0,0.38-0.01,0.57-0.03c1.43-0.15,2.82-0.83,3.92-1.93c2.04-2.04,2.51-4.98,1.27-6.99l3.23-3.24
		C49.077,27.357,48.187,38.086,39.827,46.936z M46.777,18.007l-1.94,1.94c-0.61-0.8-1.26-1.59-2.01-2.34
		c-0.75-0.75-1.54-1.4-2.36-2.01l1.95-1.95L46.777,18.007z"/><path fill="#BAD5EA" d="M46.777,18.007l-1.94,1.94c-0.61-0.8-1.26-1.59-2.01-2.34c-0.75-0.75-1.54-1.4-2.36-2.01l1.95-1.95
		L46.777,18.007z"/><path fill="#98BBCE" d="M43.179,14.407l-1.86,1.86c-0.28-0.24-0.56-0.46-0.85-0.67l1.95-1.95L43.179,14.407z"/><path fill="#FFE5AB" d="M37.637,25.447c0,1.04-0.49,2.19-1.4,3.11c-0.78,0.78-1.76,1.27-2.75,1.37c-0.9,0.09-1.71-0.16-2.26-0.71
		c0,0,0,0-0.01,0v-0.01c-1.2-1.2-0.91-3.45,0.65-5.02c0.79-0.78,1.76-1.27,2.75-1.37c0.12-0.01,0.25-0.02,0.37-0.02
		c0.76,0,1.43,0.25,1.91,0.73c0,0.01,0,0.01,0,0.01C37.397,24.037,37.637,24.717,37.637,25.447z"/><path fill="#EBCE99" d="M37.309,24.097c-0.39-0.2-0.84-0.3-1.32-0.3c-0.12,0-0.25,0.01-0.37,0.02c-0.99,0.1-1.96,0.59-2.75,1.37
		c-1.34,1.35-1.74,3.2-1.07,4.45c-0.21-0.11-0.4-0.25-0.57-0.42c0,0,0,0-0.01,0v-0.01c-1.2-1.2-0.91-3.45,0.65-5.02
		c0.79-0.78,1.76-1.27,2.75-1.37c0.12-0.01,0.25-0.02,0.37-0.02c0.76,0,1.43,0.25,1.91,0.73c0,0.01,0,0.01,0,0.01
		C37.069,23.707,37.209,23.897,37.309,24.097z"/><path fill="#ECF3FB" d="M39.827 46.936L27.348 34.457l3.27-3.27c.73.45 1.58.7 2.5.7.19 0 .38-.01.57-.03 1.43-.15 2.82-.83 3.92-1.93 2.04-2.04 2.51-4.98 1.27-6.99l3.23-3.24C49.077 27.357 48.187 38.086 39.827 46.936zM40.747 18.327l-3.24 3.24c-2.01-1.26-4.96-.8-7.01 1.25-2.04 2.05-2.51 4.99-1.25 7l-3.27 3.27L13.498 20.607c4.55-4.32 9.609-6.73 14.669-6.96.26-.01.52-.02.77-.02C33.268 13.627 37.397 15.287 40.747 18.327z"/><path fill="#BAD5EA" d="M38.467,48.316c-9.6,9.049-25.759,13.889-32.999,6.64c-7.24-7.24-2.4-23.389,6.65-32.989L38.467,48.316z"/><path fill="#CED6E0" d="M40.749,18.327l-0.26,0.26c-2.85-1.88-6.1-2.88-9.47-2.88c-0.25,0-0.51,0.01-0.77,0.02
		c-5.06,0.23-10.12,2.64-14.67,6.96l-2.08-2.08c4.55-4.32,9.61-6.73,14.67-6.96c0.26-0.01,0.52-0.02,0.77-0.02
		C33.269,13.627,37.399,15.287,40.749,18.327z"/><path fill="#98BBCE" d="M6.579,55.917c-0.39-0.29-0.76-0.61-1.11-0.96c-7.24-7.24-2.4-23.39,6.65-32.99l2.08,2.08
		C5.589,33.177,0.789,48.237,6.579,55.917z"/></svg>