<svg width="70" height="70" xmlns="http://www.w3.org/2000/svg" enable-background="new 0 0 468 468" viewBox="0 0 468 468"><path fill="#fff" d="M332.788,451.692H137.212V293.491c0-53.848,43.652-97.5,97.5-97.5h0.575
			c53.848,0,97.5,43.652,97.5,97.5V451.692z"/><rect width="32" height="82.232" x="183.906" y="369.46" fill="#0795fe"/><rect width="32" height="82.232" x="252.094" y="369.46" fill="#0795fe"/><path fill="#0795fe" d="M137,468H94c-16.542,0-30-13.455-30-29.994V295.071h32V436h41V468z"/><path fill="#3e4d6c" d="M332.788,467.692H137.212c-8.836,0-16-7.164-16-16V293.491c0-8.746,1.001-17.464,2.975-25.912
			l31.161,7.281c-1.417,6.064-2.135,12.333-2.135,18.63v142.202h163.575V293.491c0-6.99-0.883-13.925-2.625-20.613l30.967-8.066
			c2.428,9.32,3.659,18.969,3.659,28.679v158.202C348.788,460.529,341.624,467.692,332.788,467.692z"/><path fill="#fff" d="M326.305,82.322L326.305,82.322c5.112-24.02-3.64-48.882-22.674-64.406L301.281,16l-3.478,2.505
			c-12.381,8.919-24.99,23.648-23.688,38.808v0c-13.954-4.303-23.274-6.667-39.115-6.667c-15.9,0-21.386,2.381-35.382,6.715v0
			c-2.184-15.857-11.552-29.824-25.396-37.864L168.203,16l-0.954,0.901c-16.882,15.951-24.318,39.494-19.66,62.245l0,0
			c-23.411,18.281-37.959,43.837-37.959,72.123c0,55.573,56.129,100.624,125.369,100.624s125.369-45.051,125.369-100.624
			C360.369,124.586,347.423,100.332,326.305,82.322z"/><path fill="#e6e7e8" d="M325.157,50.503c-3.633-12.568-11.005-24.005-21.526-32.586L301.281,16l-3.478,2.505
			c-12.381,8.919-24.99,23.648-23.688,38.807v0c-13.954-4.303-23.274-6.667-39.115-6.667c-7.282,0-28.39,1.426-43.975,3.011
			c1.859-2.313,3.879-4.52,6.062-6.596c-4.085-11.499-12.116-21.322-22.865-27.565L168.203,16l-0.954,0.901
			c-16.882,15.951-24.318,39.494-19.66,62.245c-23.411,18.281-37.959,43.837-37.959,72.123c0,30.783,17.228,58.332,44.36,76.789
			c-9.165-13.979-17.709-30.231-14.36-46.789c15.282-75.544,80.786-99.378,153.655-94.833c6.328,0.395,12.222-3.199,14.735-9.02
			C311.864,68.514,318.16,56.013,325.157,50.503z"/><path fill="#3e4d6c" d="M404,140h-28.3c-2.739-24-13.918-45.599-32.306-63.657c2.696-28.315-9.926-55.232-32.001-72.728
			c-5.609-4.575-13.592-4.821-19.464-0.59c-12.608,8.83-24.181,19.838-30.173,34.334c-16.495-3.581-34.81-4.157-51.239,0.016
			C203.6,21.35,191.19,10.412,176.239,2.165c-6.129-3.561-13.873-2.662-19.026,2.207c-18.941,16.961-28.877,43.066-26.711,68.293
			C109.741,91.361,97.193,115,94.287,140H65v32h30.799c5.095,24,19.049,45.712,40.536,62.958
			c26.509,21.277,61.548,32.965,98.664,32.965s72.155-11.674,98.664-32.951C355.152,217.726,369.105,196,374.2,172H404V140z
			 M235,235.894c-60.306,0-109.369-37.962-109.369-84.625c0-22.361,11.295-43.496,31.806-59.513
			c4.789-3.739,7.046-9.868,5.827-15.82c-2.833-13.833,0.099-27.837,7.887-39.144c6.868,5.693,11.372,13.721,12.615,22.75
			c1.328,9.644,11.283,15.981,20.583,13.101c22.604-6.997,42.275-7.065,65.05-0.042c10.672,3.29,21.611-5.531,20.656-16.658
			c-0.444-5.172,3.606-12.31,10.337-18.817c9.563,11.519,13.461,26.833,10.262,41.866c-1.223,5.743,0.799,11.695,5.268,15.505
			c18.343,15.643,28.446,35.805,28.446,56.772C344.369,197.932,295.306,235.894,235,235.894z"/></svg>