<svg xmlns="http://www.w3.org/2000/svg" enable-background="new 0 0 50 50" viewBox="0 0 50 50"><path fill="#D6D6D6" d="M46.4,46.6c-2.6,3.5-3.7,0.6-33.7,1.5C10.1,48.2,7.5,49,5,48.2c-3.5-1-3.4-4.7-3.5-7.5
			c-0.1-5,0.4-32.3,0.4-32.4C2,6.8,2.3,5.3,2.8,4c1.6-3.6,7.5-2.1,19.6-2.3c7.3-0.2,14.4-0.1,21.7,0.9c0.8,0.1,1.6,0.2,2.3,0.7
			c0.1,0,0.1,0.1,0.2,0.1c0.7,0.5,1.1,1.4,1.3,2.2c0.7,3.2,0.5,3.7,0.5,25.8C48.4,36,49.3,42.7,46.4,46.6z"/><path fill="#A078AC" d="M48.3,8.8c-5.2-1.2-8.7-0.2-13.8-0.4C29.6,8.1,29.4,7,5.9,8c-0.9,0-2.5,0.3-4,0.3C2.6-0.8,6.1,2,22.4,1.7
			c7.3-0.2,14.4-0.1,21.7,0.9c0.8,0.1,1.6,0.2,2.3,0.7c0.1,0,0.1,0.1,0.2,0.1c0.7,0.5,1.1,1.4,1.3,2.2C48.1,6.6,48.2,7.7,48.3,8.8z"/><path fill="#FFF" d="M43.5 15.7c-.2 1.1-.3 1.2-1.6 1.3-.3 0-13.8 0-13.9 0-.8 0-1 0-1-.7 0-.7.4-2.2 1-2.8.8-.7 1.1-.5 13.4-.3.4 0 1-.1 1.4 0C44.2 13.6 43.7 14.8 43.5 15.7zM43.5 22.5c-.3 1.6-.1 1.3-7.5 1.3-9.3 0-9 .2-9-.7 0-.7.4-2.2 1-2.8.8-.7 1.1-.5 13.4-.3.4 0 1-.1 1.4 0C44.2 20.4 43.7 21.6 43.5 22.5z"/><path fill="#EF4C44" d="M43.5,29.3c-0.2,1.1-0.3,1.2-1.6,1.3c-0.1,0-13.8,0-13.9,0c-0.8,0-1,0-1-0.7c0-0.7,0.4-2.2,1-2.8
			c0.8-0.7,0.8-0.5,13.4-0.3c0.4,0,1-0.1,1.4,0C44.2,27.2,43.7,28.3,43.5,29.3z"/><path fill="#49494A" d="M43.5,38.4c-0.2,1.1-0.3,1.2-1.6,1.3c-0.1,0-13.8,0-13.9,0c-0.8,0-1,0-1-0.7c0-0.7,0.4-2.2,1-2.8
			c0.8-0.7,1.1-0.5,13.4-0.3c0.4,0,1-0.1,1.4,0C44.2,36.3,43.7,37.4,43.5,38.4z"/><path fill="#FFF" d="M21.7 15.7c-.3 1.8.2 1.2-12.5 1.2-3.9 0-4 .2-4-.7 0-.7.4-2.2 1-2.8.9-.8 1.2-.5 13.4-.3.4 0 1-.1 1.4 0C22.4 13.6 21.8 14.8 21.7 15.7zM21.7 22.5c-.3 1.8.2 1.2-12.5 1.2-1 0-2 0-3 0-.8 0-1 0-1-.7 0-.7.4-2.2 1-2.8.9-.8 2.7-.5 3.8-.5.8 0 10.9.1 11 .2C22.4 20.4 21.8 21.6 21.7 22.5zM5 42.7c.3.6 1.1.8 1.8.8 4.8.2 9.7 0 14.7-.6.3 0 .6-.1.8-.2.2-.1.3-.4.4-.6.4-1.2.3-2.6.1-3.9-.7-8.1 1.4-10.9-.7-12.2-.5-.3-1.2-.3-1.8-.3-4.4.1-8.8-.1-12.9.3-1.8.2-2 .9-2.1 2.6-.1 2.1-.1 4.2-.2 6.3C4.9 42 4.8 42.2 5 42.7z"/><path fill="#353535" d="M48.9,34.1c0-1-0.1-1.9-0.1-2.8c0-21.2,0.3-22.5-0.5-25.9c-0.2-0.8-0.6-1.8-1.6-2.6
			c-0.1,0-0.1-0.1-0.1-0.1c-0.8-0.5-1.6-0.6-2.5-0.7C36.7,1,31.6,1,9.5,1C6.6,1,4.7,1.3,3.4,2.4C3,2.7,2.6,3.2,2.3,3.8c0,0,0,0,0,0
			c-0.5,1-0.8,2.5-0.9,4.4c0,0,0,0,0,0c0,0.1-0.5,27.3-0.4,32.5L1,41c0.1,6.5,1.8,8.7,9.2,7.8c5-0.6,19.3-0.4,27.8,0
			c5.9,0.3,7.1,0.3,8.7-1.9C49.3,43.6,49.1,38.5,48.9,34.1z M44,3c0.8,0.1,1.5,0.2,2.1,0.6c0,0,0.1,0.1,0.1,0.1
			c0.7,0.5,1,1.3,1.1,1.9c0.2,0.8,0.3,1.6,0.4,2.5c-1.6-0.3-3.1-0.5-4.9-0.5c-4,0-5.8,0.6-11.3-0.1C20.7,6.3,2.8,7.7,2.5,7.8
			c0.7-7.7,3.4-5.3,20-5.6C29.7,2,36.9,2.1,44,3z M46,46.3c-2.4,3.2-3.6,0.4-33.4,1.3c-2.5,0.1-5.1,0.8-7.5,0.1
			c-3-0.9-3.1-4-3.1-6.8l0-0.3C2,36.1,2.3,12.3,2.4,8.7c0.1,0,17.1-1.6,29-0.2C39.1,9.5,42,8,47.8,9.2c0.1,2.8,0,8.2,0,22.1
			c0,0.9,0,1.8,0.1,2.8C48.1,38.4,48.2,43.2,46,46.3z"/><path fill="#353535" d="M43 13c-.2-.1-12-.2-12.1-.2-2.1 0-2.5.1-3 .6-.7.6-1.1 2.2-1.1 3 0 .9.5.9 1.3.9.1 0 13.6.1 13.9 0 1.4-.1 1.6-.3 1.8-1.5 0-.2.1-.3.1-.5C44.1 14.5 44.3 13.4 43 13zM43.4 15.2c0 .2-.1.4-.1.5-.2 1-.2 1-1.3 1.1-.3 0-13.7 0-13.9 0-.8 0-.8 0-.8-.4 0-.7.4-2.1.9-2.6.4-.3.6-.4 2.7-.4.2 0 11.9.2 12 .2C43.7 13.7 43.6 14.2 43.4 15.2zM43 19.8c-.4-.1.4 0-8-.2-6.1-.1-6.4-.1-7.2.5-.7.6-1.1 2.2-1.1 3 .4.9-.9 1 5.1.9 11.7 0 11.5.5 11.9-1.5 0-.2.1-.3.1-.5C44.1 21.3 44.3 20.2 43 19.8zM43.4 21.9c0 .2-.1.4-.1.6-.2 1.4.8 1-13.3 1-2.7 0-2.7-.1-2.7-.4l0-.1c0-.7.4-2.1.9-2.6C28.8 20 29 20 35 20.1c8.1.1 7.6.1 7.8.1C43.7 20.5 43.6 21 43.4 21.9zM43 26.5c-.2-.1-12.1-.2-12.3-.2-2 0-2.3.1-2.9.6-.7.6-1.1 2.2-1.1 3 0 .9.5.9 1.3.9.7 0 14 0 13.9 0 1.8-.1 1.6-.4 1.9-2C44.1 28 44.3 26.9 43 26.5zM43.3 29.2c-.1.9-.1 1.1-1.6 1.1-15.5 0-14.4.1-14.4-.5 0-.7.4-2.1.9-2.6.4-.3.5-.4 2.5-.4.1 0 12 .2 12.1.2C43.9 27.3 43.4 28.2 43.3 29.2zM35.1 35.5c-6-.1-6.4-.1-7.2.5-.7.6-1.1 2.2-1.1 3 0 .9.5.9 1.3.9 1 0 14 0 13.9 0 1.8-.1 1.6-.4 1.9-2C44.1 37.1 43.2 35.6 35.1 35.5zM43.3 38.3c-.1.9-.1 1.1-1.6 1.1-15.5 0-14.4.1-14.4-.5 0-.7.4-2.1.9-2.6.4-.3.6-.4 2.7-.4.1 0 11.9.2 12 .2C43.9 36.4 43.4 37.3 43.3 38.3zM16.3 17.3c1 0 1.8 0 2.4 0 2.7 0 3-.1 3.2-1.4l0-.2c0-.2.1-.3.1-.5.2-.8.4-1.9-.9-2.3-.2-.1-.4-.1-.7-.1-.1 0-.3 0-.5 0-.1 0-.2 0-.4 0C7.3 12.8 7 12.5 6.1 13.3c-.7.6-1.1 2.2-1.1 3C5 17.6 5.1 17.1 16.3 17.3zM6.4 13.7c.8-.7 1.2-.4 13.3-.3.1 0 .2 0 .4 0 .4 0 .7 0 .9 0 .8.3.7.8.5 1.7 0 .2-.1.4-.1.5l0 .2c-.1.8-.1.9-2.7.9-.6 0-1.4 0-2.4 0C4.9 16.6 5.5 17 5.5 16.3 5.4 15.6 5.8 14.2 6.4 13.7zM9.9 24c11.6 0 11.8.5 12-1.3l0-.2c0-.2.1-.3.1-.5.2-.8.4-1.9-.9-2.3-.1 0-12.8-.3-12.9-.3-.7 0-1.6.1-2.2.6-.7.6-1.1 2.2-1.1 3C5 24.2 5.4 24 9.9 24zM6.4 20.5c.7-.6 2-.5 2.9-.4.7 0 11.3.1 11.7.2.8.3.7.8.5 1.7 0 .2-.1.4-.1.5l0 .2c-.2 1.3 0 .9-11.5.9-2.6 0-3 0-3.6 0-.8 0-.8 0-.8-.4C5.4 22.4 5.8 21 6.4 20.5zM22.3 25.7c-.6-.4-1.3-.3-1.9-.3-14 .4-15.1-.6-15.2 3.2 0 .9-.6 13.6-.3 14.2.4.8 1.3.9 2 .9 4.5.2 14.7-.2 15.6-.9 1.6-1.2 0-5.1.7-12.9C23.4 27.7 23.5 26.4 22.3 25.7zM21.5 42.6c-4.9.6-9.9.8-14.7.6-.9 0-1.4-.2-1.6-.6-.2-.3-.1-.5.1-8 .2-7.6-.1-8.1 2.1-8.3 2.9-.3 13.2-.3 13.3-.3.4 0 .9 0 1.3.3.9.6.9 1.5.7 3.8C21.9 38.3 23.8 42.3 21.5 42.6z"/></svg>